<svg id="visual" viewBox="0 0 960 540" width="960" height="540" xmlns="http://www.w3.org/2000/svg" xmlns:xlink="http://www.w3.org/1999/xlink" version="1.1"><rect width="960" height="540" fill="#1d232f"></rect><g><g transform="translate(421 480)"><path d="M67.3 -21.2C75.5 3.5 62.5 35.8 39.4 52.1C16.3 68.4 -16.9 68.7 -37.7 53.3C-58.5 37.9 -66.8 6.7 -58.4 -18.1C-50.1 -43 -25 -61.6 2.2 -62.3C29.5 -63.1 59 -45.9 67.3 -21.2Z" fill="none" stroke="#006bb3" stroke-width="20"></path></g><g transform="translate(4 287)"><path d="M55.4 -18.9C63.6 7.2 56.4 37.5 36.3 52.8C16.1 68.1 -16.9 68.5 -38.9 52.7C-60.9 37 -71.7 5.1 -63.4 -21.3C-55 -47.6 -27.5 -68.5 -2 -67.8C23.6 -67.2 47.2 -45.1 55.4 -18.9Z" fill="none" stroke="#006bb3" stroke-width="20"></path></g><g transform="translate(745 327)"><path d="M57.8 -18.3C64.8 3 53.6 30.7 32.9 45.9C12.2 61 -18 63.7 -36.7 50.1C-55.5 36.6 -62.8 6.9 -54.7 -15.7C-46.7 -38.3 -23.4 -53.9 1 -54.2C25.3 -54.5 50.7 -39.6 57.8 -18.3Z" fill="none" stroke="#006bb3" stroke-width="20"></path></g><g transform="translate(605 77)"><path d="M56.7 -20C64.3 5.1 55 34 33.9 50.2C12.7 66.5 -20.3 70 -43 54.6C-65.6 39.2 -77.8 5 -68.9 -21.8C-60 -48.6 -30 -68 -2.7 -67.1C24.5 -66.2 49.1 -45.1 56.7 -20Z" fill="none" stroke="#006bb3" stroke-width="20"></path></g><g transform="translate(252 40)"><path d="M57.2 -18C65.6 7.3 58 38.4 38.5 52.5C18.9 66.6 -12.7 63.8 -32.9 48.3C-53.2 32.9 -62.1 4.9 -54.8 -19C-47.4 -42.9 -23.7 -62.7 0.4 -62.8C24.4 -62.9 48.8 -43.4 57.2 -18Z" fill="none" stroke="#006bb3" stroke-width="20"></path></g><g transform="translate(431 224)"><path d="M66.4 -22.6C74.3 2.7 60.8 33.9 37.4 50.6C14 67.4 -19.2 69.8 -40.8 54.5C-62.5 39.1 -72.5 6.2 -63.8 -20.2C-55.1 -46.6 -27.5 -66.5 0.9 -66.7C29.3 -67 58.6 -47.8 66.4 -22.6Z" fill="none" stroke="#006bb3" stroke-width="20"></path></g><g transform="translate(870 506)"><path d="M62.2 -17.9C70.8 6.1 61.1 38.4 38.9 54.8C16.7 71.3 -18 71.9 -38.9 56.1C-59.8 40.4 -66.8 8.2 -58 -16.2C-49.2 -40.5 -24.6 -57 1.1 -57.4C26.8 -57.7 53.7 -41.9 62.2 -17.9Z" fill="none" stroke="#006bb3" stroke-width="20"></path></g><g transform="translate(892 128)"><path d="M57.4 -21.5C63.7 0.8 50.7 26.4 31.1 40C11.5 53.6 -14.9 55.2 -33.1 42.6C-51.4 30 -61.6 3.4 -54.7 -19.7C-47.9 -42.7 -23.9 -62 0.8 -62.3C25.5 -62.5 51.1 -43.7 57.4 -21.5Z" fill="none" stroke="#006bb3" stroke-width="20"></path></g><g transform="translate(30 519)"><path d="M53.6 -15.7C60.9 5.1 52.4 32.7 35.1 44.3C17.9 55.8 -8 51.3 -26.9 37.5C-45.7 23.7 -57.3 0.6 -51.7 -17.8C-46 -36.3 -23 -50.3 0.1 -50.3C23.1 -50.3 46.3 -36.4 53.6 -15.7Z" fill="none" stroke="#006bb3" stroke-width="20"></path></g></g></svg>